<mxfile host="app.diagrams.net" agent="Mozilla/5.0 (Windows NT 10.0; Win64; x64) AppleWebKit/537.36 (KHTML, like Gecko) Chrome/135.0.0.0 Safari/537.36" version="26.2.14">
  <diagram name="Page-1" id="QZo1TtG8dW2CzwwBKzpM">
    <mxGraphModel dx="786" dy="497" grid="1" gridSize="10" guides="1" tooltips="1" connect="1" arrows="1" fold="1" page="1" pageScale="1" pageWidth="850" pageHeight="1100" math="0" shadow="0">
      <root>
        <mxCell id="0" />
        <mxCell id="1" parent="0" />
        <mxCell id="g-PmKzsqckq6ZoKmwfaw-1" value="" style="rounded=0;whiteSpace=wrap;html=1;fillColor=#D5E8D4;" vertex="1" parent="1">
          <mxGeometry x="357.5" y="160" width="363" height="280" as="geometry" />
        </mxCell>
        <mxCell id="g-PmKzsqckq6ZoKmwfaw-2" value="" style="rounded=0;whiteSpace=wrap;html=1;fillColor=#CCCCCC;" vertex="1" parent="1">
          <mxGeometry x="170" y="162" width="150" height="280" as="geometry" />
        </mxCell>
        <mxCell id="g-PmKzsqckq6ZoKmwfaw-3" value="&lt;font style=&quot;font-size: 14px;&quot;&gt;&lt;b&gt;Container&lt;/b&gt;&lt;/font&gt;" style="text;html=1;align=center;verticalAlign=middle;whiteSpace=wrap;rounded=0;" vertex="1" parent="1">
          <mxGeometry x="225" y="130" width="60" height="30" as="geometry" />
        </mxCell>
        <mxCell id="g-PmKzsqckq6ZoKmwfaw-4" value="&lt;font style=&quot;font-size: 14px;&quot;&gt;&lt;b&gt;Host&lt;/b&gt;&lt;/font&gt;" style="text;html=1;align=center;verticalAlign=middle;whiteSpace=wrap;rounded=0;" vertex="1" parent="1">
          <mxGeometry x="515" y="130" width="60" height="30" as="geometry" />
        </mxCell>
        <mxCell id="g-PmKzsqckq6ZoKmwfaw-5" value="client" style="ellipse;whiteSpace=wrap;html=1;fillColor=#CCCCCC;" vertex="1" parent="1">
          <mxGeometry x="204" y="391" width="70" height="40" as="geometry" />
        </mxCell>
        <mxCell id="g-PmKzsqckq6ZoKmwfaw-6" value="client" style="ellipse;whiteSpace=wrap;html=1;fillColor=#D5E8D4;" vertex="1" parent="1">
          <mxGeometry x="504" y="168" width="70" height="40" as="geometry" />
        </mxCell>
        <mxCell id="g-PmKzsqckq6ZoKmwfaw-7" value="" style="rounded=0;whiteSpace=wrap;html=1;fillColor=#D5E8D4;" vertex="1" parent="1">
          <mxGeometry x="370" y="237" width="340" height="90" as="geometry" />
        </mxCell>
        <mxCell id="g-PmKzsqckq6ZoKmwfaw-8" value="audioserver" style="text;html=1;align=center;verticalAlign=middle;whiteSpace=wrap;rounded=0;" vertex="1" parent="1">
          <mxGeometry x="514" y="231" width="60" height="30" as="geometry" />
        </mxCell>
        <mxCell id="g-PmKzsqckq6ZoKmwfaw-9" value="" style="ellipse;whiteSpace=wrap;html=1;fillColor=#D5E8D4;" vertex="1" parent="1">
          <mxGeometry x="440" y="244" width="70" height="70" as="geometry" />
        </mxCell>
        <mxCell id="g-PmKzsqckq6ZoKmwfaw-10" value="AudioPolicy" style="ellipse;whiteSpace=wrap;html=1;fillColor=#D5E8D4;" vertex="1" parent="1">
          <mxGeometry x="570" y="247.5" width="70" height="70" as="geometry" />
        </mxCell>
        <mxCell id="g-PmKzsqckq6ZoKmwfaw-13" value="" style="endArrow=none;html=1;rounded=0;shape=link;strokeColor=none;" edge="1" parent="1">
          <mxGeometry width="50" height="50" relative="1" as="geometry">
            <mxPoint x="210" y="100" as="sourcePoint" />
            <mxPoint x="260" y="50" as="targetPoint" />
          </mxGeometry>
        </mxCell>
        <mxCell id="g-PmKzsqckq6ZoKmwfaw-17" value="AudioFlinger" style="text;html=1;align=center;verticalAlign=middle;whiteSpace=wrap;rounded=0;" vertex="1" parent="1">
          <mxGeometry x="447" y="267" width="60" height="30" as="geometry" />
        </mxCell>
        <mxCell id="g-PmKzsqckq6ZoKmwfaw-24" value="AudioService" style="ellipse;whiteSpace=wrap;html=1;fillColor=#CCCCCC;" vertex="1" parent="1">
          <mxGeometry x="204" y="320" width="70" height="40" as="geometry" />
        </mxCell>
        <mxCell id="g-PmKzsqckq6ZoKmwfaw-28" value="adapter" style="ellipse;whiteSpace=wrap;html=1;fillColor=#CCCCCC;" vertex="1" parent="1">
          <mxGeometry x="204" y="250" width="70" height="40" as="geometry" />
        </mxCell>
        <mxCell id="g-PmKzsqckq6ZoKmwfaw-29" value="libhybris" style="ellipse;whiteSpace=wrap;html=1;fillColor=#CCCCCC;" vertex="1" parent="1">
          <mxGeometry x="206" y="180" width="70" height="40" as="geometry" />
        </mxCell>
        <mxCell id="g-PmKzsqckq6ZoKmwfaw-30" value="" style="endArrow=classic;startArrow=classic;html=1;rounded=0;exitX=0.5;exitY=0;exitDx=0;exitDy=0;" edge="1" parent="1" source="g-PmKzsqckq6ZoKmwfaw-5">
          <mxGeometry width="50" height="50" relative="1" as="geometry">
            <mxPoint x="190" y="410" as="sourcePoint" />
            <mxPoint x="240" y="360" as="targetPoint" />
          </mxGeometry>
        </mxCell>
        <mxCell id="g-PmKzsqckq6ZoKmwfaw-31" value="" style="endArrow=classic;startArrow=classic;html=1;rounded=0;exitX=0.5;exitY=0;exitDx=0;exitDy=0;" edge="1" parent="1" source="g-PmKzsqckq6ZoKmwfaw-24">
          <mxGeometry width="50" height="50" relative="1" as="geometry">
            <mxPoint x="190" y="330" as="sourcePoint" />
            <mxPoint x="240" y="290" as="targetPoint" />
          </mxGeometry>
        </mxCell>
        <mxCell id="g-PmKzsqckq6ZoKmwfaw-33" value="" style="endArrow=classic;startArrow=classic;html=1;rounded=0;exitX=0.5;exitY=0;exitDx=0;exitDy=0;" edge="1" parent="1" source="g-PmKzsqckq6ZoKmwfaw-28">
          <mxGeometry width="50" height="50" relative="1" as="geometry">
            <mxPoint x="190" y="270" as="sourcePoint" />
            <mxPoint x="240" y="220" as="targetPoint" />
          </mxGeometry>
        </mxCell>
        <mxCell id="g-PmKzsqckq6ZoKmwfaw-43" value="" style="endArrow=classic;startArrow=classic;html=1;rounded=0;entryX=0;entryY=0.5;entryDx=0;entryDy=0;" edge="1" parent="1" target="g-PmKzsqckq6ZoKmwfaw-10">
          <mxGeometry width="50" height="50" relative="1" as="geometry">
            <mxPoint x="510" y="283" as="sourcePoint" />
            <mxPoint x="560" y="233" as="targetPoint" />
          </mxGeometry>
        </mxCell>
        <mxCell id="g-PmKzsqckq6ZoKmwfaw-46" value="Audio HAL" style="rounded=0;whiteSpace=wrap;html=1;fillColor=#D5E8D4;" vertex="1" parent="1">
          <mxGeometry x="370" y="360" width="340" height="50" as="geometry" />
        </mxCell>
      </root>
    </mxGraphModel>
  </diagram>
</mxfile>
